<mxfile host="app.diagrams.net" agent="Mozilla/5.0 (Windows NT 10.0; Win64; x64) AppleWebKit/537.36 (KHTML, like Gecko) Chrome/120.0.0.0 Safari/537.36" version="26.0.14">
  <diagram name="Page-1" id="efa7a0a1-bf9b-a30e-e6df-94a7791c09e9">
    <mxGraphModel dx="2607" dy="1418" grid="1" gridSize="10" guides="1" tooltips="1" connect="1" arrows="1" fold="1" page="1" pageScale="1" pageWidth="826" pageHeight="1169" background="none" math="0" shadow="0">
      <root>
        <mxCell id="0" />
        <mxCell id="1" parent="0" />
        <mxCell id="YutBsHjUrztrJLSxxQKj-114" value="&lt;font style=&quot;font-size: 36px;&quot;&gt;Start&lt;/font&gt;" style="ellipse;whiteSpace=wrap;html=1;" vertex="1" parent="1">
          <mxGeometry x="330" y="260" width="200" height="100" as="geometry" />
        </mxCell>
        <mxCell id="YutBsHjUrztrJLSxxQKj-115" value="" style="rounded=0;whiteSpace=wrap;html=1;" vertex="1" parent="1">
          <mxGeometry x="715" width="230" height="100" as="geometry" />
        </mxCell>
        <mxCell id="YutBsHjUrztrJLSxxQKj-116" value="&#xa;&lt;span style=&quot;color: rgb(0, 0, 0); font-family: Helvetica; font-size: 36px; font-style: normal; font-variant-ligatures: normal; font-variant-caps: normal; font-weight: 400; letter-spacing: normal; orphans: 2; text-align: center; text-indent: 0px; text-transform: none; widows: 2; word-spacing: 0px; -webkit-text-stroke-width: 0px; white-space: normal; background-color: rgb(251, 251, 251); text-decoration-thickness: initial; text-decoration-style: initial; text-decoration-color: initial; display: inline !important; float: none;&quot;&gt;Start&lt;/span&gt;&#xa;&#xa;" style="ellipse;whiteSpace=wrap;html=1;" vertex="1" parent="1">
          <mxGeometry x="720" y="250" width="210" height="90" as="geometry" />
        </mxCell>
        <mxCell id="YutBsHjUrztrJLSxxQKj-117" value="&#xa;&lt;span style=&quot;color: rgb(0, 0, 0); font-family: Helvetica; font-size: 36px; font-style: normal; font-variant-ligatures: normal; font-variant-caps: normal; font-weight: 400; letter-spacing: normal; orphans: 2; text-align: center; text-indent: 0px; text-transform: none; widows: 2; word-spacing: 0px; -webkit-text-stroke-width: 0px; white-space: normal; background-color: rgb(251, 251, 251); text-decoration-thickness: initial; text-decoration-style: initial; text-decoration-color: initial; display: inline !important; float: none;&quot;&gt;Start&lt;/span&gt;&#xa;&#xa;" style="ellipse;whiteSpace=wrap;html=1;" vertex="1" parent="1">
          <mxGeometry x="1110" y="240" width="210" height="100" as="geometry" />
        </mxCell>
        <mxCell id="YutBsHjUrztrJLSxxQKj-118" value="" style="endArrow=none;html=1;rounded=0;" edge="1" parent="1">
          <mxGeometry width="50" height="50" relative="1" as="geometry">
            <mxPoint x="430" y="170" as="sourcePoint" />
            <mxPoint x="1220" y="170" as="targetPoint" />
          </mxGeometry>
        </mxCell>
        <mxCell id="YutBsHjUrztrJLSxxQKj-119" value="" style="endArrow=classic;html=1;rounded=0;" edge="1" parent="1" target="YutBsHjUrztrJLSxxQKj-114">
          <mxGeometry width="50" height="50" relative="1" as="geometry">
            <mxPoint x="430" y="170" as="sourcePoint" />
            <mxPoint x="960" y="450" as="targetPoint" />
          </mxGeometry>
        </mxCell>
        <mxCell id="YutBsHjUrztrJLSxxQKj-120" value="" style="endArrow=classic;html=1;rounded=0;" edge="1" parent="1">
          <mxGeometry width="50" height="50" relative="1" as="geometry">
            <mxPoint x="826" y="170" as="sourcePoint" />
            <mxPoint x="826" y="250" as="targetPoint" />
          </mxGeometry>
        </mxCell>
        <mxCell id="YutBsHjUrztrJLSxxQKj-121" value="" style="endArrow=classic;html=1;rounded=0;" edge="1" parent="1">
          <mxGeometry width="50" height="50" relative="1" as="geometry">
            <mxPoint x="826" y="170" as="sourcePoint" />
            <mxPoint x="826" y="250" as="targetPoint" />
            <Array as="points">
              <mxPoint x="826" y="220" />
            </Array>
          </mxGeometry>
        </mxCell>
        <mxCell id="YutBsHjUrztrJLSxxQKj-123" value="" style="endArrow=classic;html=1;rounded=0;" edge="1" parent="1">
          <mxGeometry width="50" height="50" relative="1" as="geometry">
            <mxPoint x="826" y="170" as="sourcePoint" />
            <mxPoint x="826" y="250" as="targetPoint" />
            <Array as="points">
              <mxPoint x="826" y="190" />
              <mxPoint x="826" y="220" />
            </Array>
          </mxGeometry>
        </mxCell>
        <mxCell id="YutBsHjUrztrJLSxxQKj-127" value="" style="endArrow=classic;html=1;rounded=0;entryX=0.5;entryY=0;entryDx=0;entryDy=0;" edge="1" parent="1" target="YutBsHjUrztrJLSxxQKj-117">
          <mxGeometry width="50" height="50" relative="1" as="geometry">
            <mxPoint x="1215" y="170" as="sourcePoint" />
            <mxPoint x="960" y="450" as="targetPoint" />
          </mxGeometry>
        </mxCell>
        <mxCell id="YutBsHjUrztrJLSxxQKj-128" value="&lt;font style=&quot;font-size: 24px;&quot;&gt;Register/Login&lt;/font&gt;" style="rounded=1;whiteSpace=wrap;html=1;" vertex="1" parent="1">
          <mxGeometry x="290" y="420" width="270" height="70" as="geometry" />
        </mxCell>
        <mxCell id="YutBsHjUrztrJLSxxQKj-129" value="&lt;font style=&quot;font-size: 24px;&quot;&gt;Complete Profile&lt;/font&gt;" style="rounded=1;whiteSpace=wrap;html=1;" vertex="1" parent="1">
          <mxGeometry x="295" y="530" width="270" height="70" as="geometry" />
        </mxCell>
        <mxCell id="YutBsHjUrztrJLSxxQKj-130" value="&lt;font style=&quot;font-size: 24px;&quot;&gt;Browse Job Listings&lt;/font&gt;" style="rounded=1;whiteSpace=wrap;html=1;" vertex="1" parent="1">
          <mxGeometry x="290" y="640" width="270" height="70" as="geometry" />
        </mxCell>
        <mxCell id="YutBsHjUrztrJLSxxQKj-131" value="&lt;font style=&quot;font-size: 24px;&quot;&gt;Apply for Jobs&lt;/font&gt;" style="rounded=1;whiteSpace=wrap;html=1;" vertex="1" parent="1">
          <mxGeometry x="290" y="750" width="270" height="70" as="geometry" />
        </mxCell>
        <mxCell id="YutBsHjUrztrJLSxxQKj-132" value="&lt;font style=&quot;font-size: 24px;&quot;&gt;Track Application&lt;/font&gt;" style="rounded=1;whiteSpace=wrap;html=1;" vertex="1" parent="1">
          <mxGeometry x="290" y="870" width="270" height="70" as="geometry" />
        </mxCell>
        <mxCell id="YutBsHjUrztrJLSxxQKj-133" value="&lt;font style=&quot;font-size: 24px;&quot;&gt;Attend interview&lt;/font&gt;" style="rounded=1;whiteSpace=wrap;html=1;" vertex="1" parent="1">
          <mxGeometry x="280" y="980" width="285" height="70" as="geometry" />
        </mxCell>
        <mxCell id="YutBsHjUrztrJLSxxQKj-134" value="&lt;font style=&quot;font-size: 24px;&quot;&gt;Receive offer&lt;/font&gt;" style="rounded=1;whiteSpace=wrap;html=1;" vertex="1" parent="1">
          <mxGeometry x="290" y="1100" width="270" height="70" as="geometry" />
        </mxCell>
        <mxCell id="YutBsHjUrztrJLSxxQKj-135" value="&lt;font style=&quot;font-size: 24px;&quot;&gt;Accept/Reject&lt;/font&gt;" style="rounded=1;whiteSpace=wrap;html=1;" vertex="1" parent="1">
          <mxGeometry x="287.5" y="1210" width="270" height="70" as="geometry" />
        </mxCell>
        <mxCell id="YutBsHjUrztrJLSxxQKj-136" value="&lt;span style=&quot;font-size: 24px;&quot;&gt;Register/Login&lt;/span&gt;" style="rounded=1;whiteSpace=wrap;html=1;" vertex="1" parent="1">
          <mxGeometry x="1085" y="420" width="270" height="70" as="geometry" />
        </mxCell>
        <mxCell id="YutBsHjUrztrJLSxxQKj-137" value="&lt;font style=&quot;font-size: 18px;&quot;&gt;Approved/Reject Job Posting&lt;/font&gt;" style="rounded=1;whiteSpace=wrap;html=1;" vertex="1" parent="1">
          <mxGeometry x="1090" y="640" width="270" height="70" as="geometry" />
        </mxCell>
        <mxCell id="YutBsHjUrztrJLSxxQKj-138" value="&lt;font style=&quot;font-size: 24px;&quot;&gt;Manage Users&lt;/font&gt;" style="rounded=1;whiteSpace=wrap;html=1;" vertex="1" parent="1">
          <mxGeometry x="1090" y="530" width="270" height="70" as="geometry" />
        </mxCell>
        <mxCell id="YutBsHjUrztrJLSxxQKj-139" value="&lt;font style=&quot;font-size: 24px;&quot;&gt;Select Candidates&lt;/font&gt;" style="rounded=1;whiteSpace=wrap;html=1;" vertex="1" parent="1">
          <mxGeometry x="700" y="1100" width="270" height="70" as="geometry" />
        </mxCell>
        <mxCell id="YutBsHjUrztrJLSxxQKj-140" value="&lt;font style=&quot;font-size: 18px;&quot;&gt;Monitor Recruitment Activities&lt;/font&gt;" style="rounded=1;whiteSpace=wrap;html=1;" vertex="1" parent="1">
          <mxGeometry x="1090" y="750" width="270" height="70" as="geometry" />
        </mxCell>
        <mxCell id="YutBsHjUrztrJLSxxQKj-141" value="&lt;font style=&quot;font-size: 24px;&quot;&gt;Generate Reports&lt;/font&gt;" style="rounded=1;whiteSpace=wrap;html=1;" vertex="1" parent="1">
          <mxGeometry x="1085" y="860" width="270" height="70" as="geometry" />
        </mxCell>
        <mxCell id="YutBsHjUrztrJLSxxQKj-144" value="&lt;span style=&quot;font-size: 24px;&quot;&gt;Register/Login&lt;/span&gt;" style="rounded=1;whiteSpace=wrap;html=1;" vertex="1" parent="1">
          <mxGeometry x="690" y="420" width="270" height="70" as="geometry" />
        </mxCell>
        <mxCell id="YutBsHjUrztrJLSxxQKj-145" value="&lt;font style=&quot;font-size: 24px;&quot;&gt;Create Company Profile&lt;/font&gt;" style="rounded=1;whiteSpace=wrap;html=1;" vertex="1" parent="1">
          <mxGeometry x="700" y="530" width="270" height="70" as="geometry" />
        </mxCell>
        <mxCell id="YutBsHjUrztrJLSxxQKj-147" value="&lt;font style=&quot;font-size: 24px;&quot;&gt;Post Job Listing&lt;/font&gt;" style="rounded=1;whiteSpace=wrap;html=1;" vertex="1" parent="1">
          <mxGeometry x="700" y="640" width="270" height="70" as="geometry" />
        </mxCell>
        <mxCell id="YutBsHjUrztrJLSxxQKj-148" value="&lt;font style=&quot;font-size: 24px;&quot;&gt;Review Application&lt;/font&gt;" style="rounded=1;whiteSpace=wrap;html=1;" vertex="1" parent="1">
          <mxGeometry x="700" y="750" width="270" height="70" as="geometry" />
        </mxCell>
        <mxCell id="YutBsHjUrztrJLSxxQKj-149" value="&lt;font style=&quot;font-size: 24px;&quot;&gt;Shortlist Candidate&lt;/font&gt;" style="rounded=1;whiteSpace=wrap;html=1;" vertex="1" parent="1">
          <mxGeometry x="695" y="870" width="270" height="70" as="geometry" />
        </mxCell>
        <mxCell id="YutBsHjUrztrJLSxxQKj-150" value="&lt;font style=&quot;font-size: 24px;&quot;&gt;Conduct Interviews&lt;/font&gt;" style="rounded=1;whiteSpace=wrap;html=1;" vertex="1" parent="1">
          <mxGeometry x="700" y="980" width="270" height="70" as="geometry" />
        </mxCell>
        <mxCell id="YutBsHjUrztrJLSxxQKj-151" value="&lt;font style=&quot;font-size: 24px;&quot;&gt;Send Offer Letters&lt;/font&gt;" style="rounded=1;whiteSpace=wrap;html=1;" vertex="1" parent="1">
          <mxGeometry x="700" y="1220" width="270" height="70" as="geometry" />
        </mxCell>
        <mxCell id="YutBsHjUrztrJLSxxQKj-152" value="" style="endArrow=none;html=1;rounded=0;exitX=0.5;exitY=1;exitDx=0;exitDy=0;" edge="1" parent="1" source="YutBsHjUrztrJLSxxQKj-115">
          <mxGeometry width="50" height="50" relative="1" as="geometry">
            <mxPoint x="910" y="720" as="sourcePoint" />
            <mxPoint x="830" y="170" as="targetPoint" />
            <Array as="points">
              <mxPoint x="830" y="140" />
            </Array>
          </mxGeometry>
        </mxCell>
        <mxCell id="YutBsHjUrztrJLSxxQKj-153" value="" style="endArrow=classic;html=1;rounded=0;entryX=0.5;entryY=0;entryDx=0;entryDy=0;" edge="1" parent="1" target="YutBsHjUrztrJLSxxQKj-128">
          <mxGeometry width="50" height="50" relative="1" as="geometry">
            <mxPoint x="424.47" y="360" as="sourcePoint" />
            <mxPoint x="424.47" y="450" as="targetPoint" />
          </mxGeometry>
        </mxCell>
        <mxCell id="YutBsHjUrztrJLSxxQKj-154" value="" style="endArrow=classic;html=1;rounded=0;entryX=0.5;entryY=0;entryDx=0;entryDy=0;" edge="1" parent="1" target="YutBsHjUrztrJLSxxQKj-144">
          <mxGeometry width="50" height="50" relative="1" as="geometry">
            <mxPoint x="825" y="340" as="sourcePoint" />
            <mxPoint x="830" y="410" as="targetPoint" />
          </mxGeometry>
        </mxCell>
        <mxCell id="YutBsHjUrztrJLSxxQKj-155" value="" style="endArrow=classic;html=1;rounded=0;" edge="1" parent="1">
          <mxGeometry width="50" height="50" relative="1" as="geometry">
            <mxPoint x="1219.47" y="340" as="sourcePoint" />
            <mxPoint x="1219" y="420" as="targetPoint" />
          </mxGeometry>
        </mxCell>
      </root>
    </mxGraphModel>
  </diagram>
</mxfile>
